<svg width="1314" height="425" viewBox="0 0 1314 425" fill="none" xmlns="http://www.w3.org/2000/svg">
<path d="M65.7211 425C21.907 367.864 0 297.03 0 212.5C0 127.97 21.907 57.1363 65.7211 0H92.479C74.7969 23.011 60.1661 54.5534 48.5867 94.6271C37.1637 134.701 31.4522 173.992 31.4522 212.5C31.4522 251.321 37.1637 290.691 48.5867 330.608C60.0096 370.525 74.6404 401.989 92.479 425H65.7211Z" fill="white"/>
<path d="M188.76 330.608C211.45 330.608 230.384 323.798 245.562 310.18C260.897 296.404 268.565 279.498 268.565 259.461V229.876L193.69 235.276C151.284 238.25 130.081 254.217 130.081 283.177C130.081 297.578 135.558 309.084 146.511 317.693C157.465 326.303 171.548 330.608 188.76 330.608ZM183.597 357.845C158.56 357.845 138.061 351.114 122.1 337.652C106.296 324.033 98.3939 306.031 98.3939 283.646C98.3939 261.731 106.218 244.512 121.866 231.989C137.514 219.309 160.047 211.952 189.465 209.917L268.565 204.751V180.331C268.565 162.173 263.166 148.241 252.369 138.536C241.729 128.831 226.159 123.978 205.66 123.978C188.291 123.978 173.66 127.5 161.768 134.544C150.032 141.432 142.677 150.981 139.704 163.191H108.487C111.46 143.154 121.866 127.03 139.704 114.82C157.699 102.61 179.998 96.5055 206.599 96.5055C236.174 96.5055 259.019 103.863 275.137 118.577C291.411 133.135 299.547 153.642 299.547 180.097V353.619H269.973V310.18H267.156C259.489 325.207 248.301 336.948 233.592 345.401C218.883 353.697 202.218 357.845 183.597 357.845Z" fill="white"/>
<path d="M374.47 236.215H364.611V353.619H333.863V100.732H364.611V211.561H374.47L486.9 100.732H524.924L400.289 222.127L530.557 353.619H489.951L374.47 236.215Z" fill="white"/>
<path d="M781.753 420.539H752.648V353.619H543.044V100.732H573.792V327.555H710.164V100.732H740.912V327.555H781.753V420.539Z" fill="white"/>
<path d="M820.998 353.619H790.25V100.732H820.998V304.075H824.049L964.411 100.732H995.159V353.619H964.411V150.276H961.594L820.998 353.619Z" fill="white"/>
<path d="M1114.91 231.989H1170.31V126.796H1114.91C1096.29 126.796 1081.5 131.648 1070.55 141.354C1059.6 150.902 1054.12 163.973 1054.12 180.566C1054.12 195.907 1059.67 208.352 1070.78 217.901C1081.89 227.293 1096.6 231.989 1114.91 231.989ZM1170.31 353.619V258.052H1118.9L1050.13 353.619H1013.28L1086.28 252.887C1066.72 248.817 1051.3 240.52 1040.04 227.997C1028.93 215.318 1023.37 199.742 1023.37 181.271C1023.37 156.381 1031.59 136.736 1048.02 122.334C1064.6 107.933 1086.9 100.732 1114.91 100.732H1201.05V353.619H1170.31Z" fill="white"/>
<path d="M1248.28 0C1292.09 57.1363 1314 127.97 1314 212.5C1314 297.03 1292.09 367.864 1248.28 425H1221.52C1239.36 401.989 1253.99 370.525 1265.41 330.608C1276.84 290.691 1282.55 251.321 1282.55 212.5C1282.55 173.992 1276.76 134.701 1265.18 94.6271C1253.76 54.5534 1239.2 23.011 1221.52 0H1248.28Z" fill="white"/>
</svg>
