<svg width="24" height="24" viewBox="0 0 24 24" fill="none" xmlns="http://www.w3.org/2000/svg">
<path d="M9.24978 19.5C9.24978 19.3011 9.17071 19.1104 9.03006 18.9698C8.88941 18.8291 8.6987 18.75 8.49978 18.75C8.30087 18.75 8.11016 18.8291 7.96951 18.9698C7.82886 19.1104 7.74978 19.3011 7.74978 19.5C7.74978 19.6989 7.82886 19.8897 7.96951 20.0303C8.11016 20.171 8.30087 20.25 8.49978 20.25C8.6987 20.25 8.88941 20.171 9.03006 20.0303C9.17071 19.8897 9.24978 19.6989 9.24978 19.5ZM17.2498 19.5C17.2498 19.3011 17.1707 19.1104 17.0301 18.9698C16.8894 18.8291 16.6987 18.75 16.4998 18.75C16.3009 18.75 16.1102 18.8291 15.9695 18.9698C15.8289 19.1104 15.7498 19.3011 15.7498 19.5C15.7498 19.6989 15.8289 19.8897 15.9695 20.0303C16.1102 20.171 16.3009 20.25 16.4998 20.25C16.6987 20.25 16.8894 20.171 17.0301 20.0303C17.1707 19.8896 17.2498 19.6989 17.2498 19.5ZM2.78689 2.28128C3.18401 2.1638 3.60093 2.39009 3.71853 2.78714L4.26932 4.65042H18.9236C20.7644 4.65042 22.1693 6.36641 21.6385 8.16116L19.9842 13.7608C19.6305 14.9537 18.512 15.75 17.2693 15.75H8.11209C6.86878 15.75 5.74895 14.9535 5.39627 13.7608L2.99002 5.61233L2.991 5.61136L2.28103 3.21292C2.16355 2.8158 2.38985 2.39888 2.78689 2.28128ZM6.83475 13.335C6.99006 13.8602 7.5014 14.25 8.11209 14.25H17.2693C17.8785 14.25 18.3893 13.862 18.5457 13.335L20.2 7.73538L20.2322 7.59183C20.3499 6.87411 19.7815 6.15042 18.9236 6.15042H4.71365L6.83475 13.335ZM10.7498 19.5C10.7498 20.0968 10.5126 20.6689 10.0906 21.0908C9.66865 21.5128 9.09652 21.75 8.49978 21.75C7.90305 21.75 7.33092 21.5128 6.90896 21.0908C6.48701 20.6689 6.24978 20.0968 6.24978 19.5C6.24978 18.9033 6.48701 18.3312 6.90896 17.9092C7.33092 17.4873 7.90305 17.25 8.49978 17.25C9.09652 17.25 9.66865 17.4873 10.0906 17.9092C10.5126 18.3312 10.7498 18.9033 10.7498 19.5ZM18.7498 19.5C18.7498 20.0968 18.5126 20.6689 18.0906 21.0908C17.6687 21.5128 17.0965 21.75 16.4998 21.75C15.903 21.75 15.3309 21.5128 14.909 21.0908C14.487 20.6689 14.2498 20.0968 14.2498 19.5C14.2498 18.9033 14.487 18.3312 14.909 17.9092C15.3309 17.4873 15.903 17.25 16.4998 17.25C17.0965 17.25 17.6687 17.4873 18.0906 17.9092C18.5126 18.3312 18.7498 18.9033 18.7498 19.5Z" fill="black"/>
</svg>
