<svg width="110" height="34" viewBox="0 0 110 34" fill="none" xmlns="http://www.w3.org/2000/svg">
<path fill-rule="evenodd" clip-rule="evenodd" d="M12.9129 0.10149C12.969 0.158271 12.9251 0.378374 12.748 0.929779C12.0524 3.09474 10.7793 4.97455 9.37038 5.91709C8.65994 6.39232 7.99473 6.68241 7.00452 6.94887C6.22993 7.15723 6.17084 7.16265 4.62055 7.16689C3.74618 7.16925 3.0074 7.14743 2.97871 7.11845C2.90495 7.04381 3.38365 5.62568 3.74254 4.8557C5.06721 2.01354 6.91195 0.538152 9.70992 0.0830732C10.448 -0.0369514 12.7894 -0.0235382 12.9129 0.10149ZM44.0892 9.4313C47.4499 9.7118 50.1559 11.6164 51.7395 14.8161C52.8799 17.1202 53.3858 19.9436 53.1878 22.8994C52.9465 26.5025 51.7848 29.3724 49.7542 31.3816C48.387 32.7344 47.1271 33.3913 44.9813 33.8703C44.2885 34.0249 42.063 34.0469 41.3787 33.9059C40.3207 33.6879 39.9384 33.5822 39.3886 33.3561C36.9894 32.3692 35.2081 30.565 34.087 27.9861C33.2629 26.0908 32.8061 23.4771 32.8907 21.1406C33.0681 16.2354 34.9954 12.4631 38.2869 10.5788C39.425 9.92732 40.8971 9.48739 42.2021 9.40886C42.9943 9.36118 43.2906 9.36465 44.0892 9.4313ZM67.2989 9.53256C70.8153 10.17 73.5455 12.688 74.7609 16.4146C75.3234 18.1388 75.561 19.7102 75.5597 21.6965C75.5559 27.4741 73.1849 31.7214 69.0331 33.388C68.5446 33.5841 68.1269 33.6967 67.1117 33.9059C66.4273 34.0469 64.2018 34.0249 63.509 33.8703C61.7964 33.488 60.8215 33.0548 59.5654 32.1176C57.3076 30.4331 55.7162 27.2682 55.3388 23.7119C54.8833 19.4198 55.9296 15.2286 58.088 12.6992C59.6765 10.8377 61.8914 9.66107 64.2367 9.43283C65.0425 9.35437 66.595 9.40496 67.2989 9.53256ZM93.6536 9.43457C94.9777 9.58191 95.9052 10.0291 96.7622 10.9335C97.2537 11.4521 97.4813 11.786 97.8301 12.5002C97.9548 12.7554 98.0821 12.9801 98.1131 12.9994C98.2046 13.0567 98.3016 12.9555 98.4037 12.6964C98.7434 11.8339 99.699 10.7458 100.582 10.2157C101.715 9.53583 103.003 9.27542 104.529 9.41761C105.514 9.50942 106.287 9.73265 106.887 10.0989C108.742 11.2301 109.642 13.2386 109.93 16.8874C109.972 17.4212 110 20.8635 110 25.4879V33.1985H101.635L101.615 25.8838C101.594 18.569 101.594 18.569 101.409 18.0565C101.128 17.2781 100.802 17.0053 100.153 17.0053C99.3885 17.0053 98.8602 17.5426 98.6819 18.5013C98.6285 18.7884 98.6 21.115 98.5896 26.0402L98.5746 33.1638L90.1684 33.1996L90.1679 26.0928C90.1676 21.5646 90.1418 18.8221 90.0968 18.5343C90.007 17.9593 89.7549 17.4297 89.4671 17.2109C89.2775 17.067 89.1655 17.04 88.7567 17.04C88.343 17.04 88.2295 17.0681 87.9885 17.2296C87.8329 17.3339 87.6259 17.557 87.5284 17.7256C87.1516 18.3768 87.1516 18.3762 87.1503 26.0923L87.1491 33.1985H78.7773V10.2639H86.9404L86.9589 11.6365C86.9706 12.499 87.0031 13.0064 87.0462 13.0017C87.0839 12.9976 87.2229 12.7786 87.355 12.515C87.6804 11.8655 87.9493 11.4865 88.4273 11.0035C89.0985 10.3255 89.6577 9.97624 90.5459 9.68032C91.4794 9.36931 92.4077 9.29592 93.6536 9.43457ZM31.7202 9.65509C32.0462 9.73418 32.0462 9.73418 32.0453 10.0512C32.0449 10.2255 31.999 10.8877 31.9434 11.5226C31.8878 12.1576 31.7641 13.8308 31.6685 15.2408C31.5066 17.6298 31.4531 18.2545 31.4065 18.3018C31.3963 18.3122 31.2195 18.2748 31.0136 18.2187C30.8078 18.1627 30.377 18.0973 30.0561 18.0735C28.4991 17.9576 27.431 18.6432 26.8482 20.1327C26.5295 20.9473 26.5341 20.8523 26.5066 27.1695L26.4802 33.1985H17.9102V10.2639H26.0736L26.092 11.9145C26.1077 13.3232 26.1254 13.5651 26.2128 13.5651C26.2772 13.5651 26.3732 13.3971 26.471 13.1134C27.0726 11.3684 28.1039 10.16 29.3356 9.75711C30.1068 9.50483 30.9517 9.46869 31.7202 9.65509ZM42.4923 17.1269C41.9368 17.4306 41.6517 17.8792 41.3546 18.9165C41.1322 19.6933 41.0369 20.5263 41.0361 21.6983C41.0354 22.875 41.1278 23.6131 41.3882 24.511C41.626 25.3308 41.9457 25.8847 42.3142 26.1154C43.026 26.5609 43.893 26.3387 44.3864 25.5843C44.8292 24.9074 45.0308 24.105 45.1455 22.5626C45.217 21.6022 45.1259 20.0664 44.9509 19.2798C44.7651 18.4451 44.4234 17.6949 44.0966 17.4042C43.6643 17.0196 42.9228 16.8915 42.4923 17.1269ZM64.7958 17.1477C64.0234 17.5452 63.5206 18.8964 63.4181 20.8497C63.319 22.7362 63.5556 24.4306 64.0544 25.4075C64.2336 25.7585 64.6292 26.1645 64.8688 26.2432C65.8661 26.5706 66.6452 26.0775 67.1049 24.8281C67.4039 24.0153 67.4809 23.3958 67.4851 21.766C67.4894 20.0972 67.4381 19.6765 67.1018 18.6258C66.7539 17.5388 66.284 17.0658 65.5082 17.0216C65.1798 17.0029 65.0233 17.0306 64.7958 17.1477Z" fill="black"/>
<path d="M9.52018 10.6177C9.47359 10.5256 9.31191 10.3848 9.16095 10.3049C8.89731 10.1654 8.78106 10.1592 6.21023 10.1492C3.27619 10.1378 3.04198 10.1601 2.09762 10.54C1.07571 10.9512 0.403562 11.5396 0.139507 12.2544C0.00157836 12.6277 0 12.7475 0 22.6419C0 29.3027 0.0234 32.6959 0.0698566 32.7839C0.108353 32.8567 0.285877 33.0032 0.464429 33.1095C0.789146 33.3028 0.789146 33.3028 4.80349 33.3028C8.81784 33.3028 8.81784 33.3028 9.10804 33.1457C9.65056 32.8522 9.60712 33.8527 9.60596 21.6826C9.6052 13.1724 9.5864 10.7485 9.52018 10.6177Z" fill="black"/>
</svg>
