<svg width="20" height="20" viewBox="0 0 20 20" fill="none" xmlns="http://www.w3.org/2000/svg">
<path d="M16.1641 7.1421C16.5511 7.1733 16.8465 7.49354 16.8545 7.87354L16.8516 7.95069C16.8515 7.95138 16.8517 7.95323 16.8516 7.9546C16.8514 7.95725 16.851 7.96117 16.8506 7.96632C16.8497 7.97703 16.8484 7.99336 16.8467 8.01417C16.8433 8.05594 16.8385 8.11767 16.832 8.19678C16.8191 8.35511 16.7997 8.58388 16.7764 8.86573C16.7298 9.42941 16.6658 10.2058 16.5928 11.0562C16.4469 12.7536 16.2672 14.7569 16.1348 15.9497C16.0572 16.65 15.7918 17.2798 15.2988 17.7378C14.804 18.1975 14.1532 18.4152 13.4375 18.4282C11.255 18.4675 9.06815 18.4704 6.8838 18.4243V18.4233C6.18081 18.4088 5.54458 18.1835 5.06251 17.7241C4.58387 17.2679 4.32332 16.6449 4.24708 15.9556L4.13966 14.9194C4.02621 13.7687 3.89812 12.3233 3.78907 11.0513C3.71623 10.2016 3.65184 9.42637 3.60548 8.86378C3.58229 8.58245 3.56363 8.35377 3.55079 8.19581C3.54439 8.11707 3.5395 8.05581 3.53614 8.01417C3.53445 7.99332 3.5331 7.97703 3.53223 7.96632C3.53182 7.9612 3.53147 7.95728 3.53126 7.9546C3.53117 7.95347 3.53131 7.95233 3.53126 7.95167L3.53028 7.95069C3.4971 7.53794 3.8051 7.17549 4.21778 7.1421C4.63053 7.10891 4.99298 7.41692 5.02637 7.8296L4.27833 7.89014L5.02637 7.83057C5.02643 7.83124 5.02627 7.83314 5.02637 7.83448L5.03126 7.89307C5.03461 7.93454 5.0395 7.99598 5.04591 8.07471C5.05871 8.23218 5.07747 8.46013 5.10059 8.74073C5.14686 9.30216 5.21055 10.0758 5.28321 10.9233C5.39242 12.1973 5.51979 13.6332 5.63184 14.77L5.73829 15.7905L5.75977 15.9409C5.82064 16.275 5.94935 16.4968 6.09766 16.6382C6.26368 16.7963 6.51957 16.9162 6.91505 16.9243H6.91602C9.07805 16.9699 11.2446 16.9672 13.4102 16.9282C13.8366 16.9205 14.1066 16.7976 14.2774 16.6392C14.4498 16.479 14.5961 16.2131 14.6436 15.7847V15.7837C14.7736 14.6123 14.9516 12.627 15.0977 10.9273C15.1705 10.0793 15.2358 9.3051 15.2822 8.74268C15.3055 8.46143 15.3241 8.23256 15.3369 8.07471C15.3433 7.99594 15.3482 7.9346 15.3516 7.89307C15.3532 7.87252 15.3546 7.85682 15.3555 7.8462C15.3559 7.84088 15.3562 7.83618 15.3565 7.8335V7.8296C15.3899 7.41699 15.7514 7.10905 16.1641 7.1421Z" fill="#BA4118"/>
<path d="M17.2568 4.44971C17.671 4.4498 18.0068 4.78555 18.0068 5.19971C18.0068 5.61386 17.671 5.94962 17.2568 5.94971H3.125C2.71079 5.94971 2.375 5.61392 2.375 5.19971C2.375 4.78549 2.71079 4.44971 3.125 4.44971H17.2568Z" fill="#BA4118"/>
<path d="M11.9541 1.54224C12.7235 1.54224 13.4062 2.02565 13.6641 2.74243L13.71 2.88892L13.7207 2.93579L13.9229 3.94946C13.9812 4.24001 14.2371 4.44933 14.5332 4.44946C14.9473 4.44946 15.2831 4.78537 15.2832 5.19946C15.2832 5.61368 14.9474 5.94946 14.5332 5.94946C13.5845 5.94934 12.7599 5.32104 12.4971 4.42603L12.4521 4.24341L12.2568 3.26685C12.2166 3.13411 12.0947 3.04224 11.9541 3.04224H8.42676C8.28756 3.04226 8.16642 3.13226 8.125 3.26294L7.92871 4.24341C7.73028 5.23429 6.8597 5.94946 5.84766 5.94946C5.43344 5.94946 5.09766 5.61368 5.09766 5.19946C5.0978 4.78537 5.43353 4.44946 5.84766 4.44946C6.14383 4.44946 6.39965 4.24007 6.45801 3.94946L6.66016 2.93579C6.66328 2.92017 6.66776 2.90431 6.67188 2.88892C6.88508 2.09244 7.60609 1.54227 8.42676 1.54224H11.9541Z" fill="#BA4118"/>
</svg>
