<svg width="24" height="24" viewBox="0 0 24 24" fill="none" xmlns="http://www.w3.org/2000/svg">
<path fill-rule="evenodd" clip-rule="evenodd" d="M15.449 11.4552L14.357 12.5484C12.834 11.2465 11.4153 9.82736 10.1138 8.30403L11.2058 7.21203C11.7682 6.64944 12.0841 5.88652 12.0841 5.09103C12.0841 4.29553 11.7682 3.53261 11.2058 2.97003L9.51017 1.27203C9.23159 0.993366 8.90084 0.772317 8.53681 0.621504C8.17278 0.47069 7.78261 0.393066 7.38857 0.393066C6.99454 0.393066 6.60437 0.47069 6.24034 0.621504C5.87631 0.772317 5.54556 0.993366 5.26697 1.27203L1.89977 4.63923C1.81846 4.72075 1.76233 4.82396 1.73807 4.93652C1.71382 5.04908 1.72246 5.16624 1.76297 5.27403C4.55177 12.7452 9.75617 17.9856 17.3846 20.898C17.4927 20.939 17.6103 20.948 17.7234 20.9237C17.8364 20.8994 17.94 20.843 18.0218 20.7612L21.389 17.3952C21.6676 17.1166 21.8887 16.7859 22.0395 16.4219C22.1903 16.0578 22.2679 15.6677 22.2679 15.2736C22.2679 14.8796 22.1903 14.4894 22.0395 14.1254C21.8887 13.7614 21.6676 13.4306 21.389 13.152L19.6922 11.4552C19.4136 11.1766 19.0828 10.9555 18.7188 10.8047C18.3548 10.6539 17.9646 10.5763 17.5706 10.5763C17.1765 10.5763 16.7864 10.6539 16.4223 10.8047C16.0583 10.9555 15.7276 11.1766 15.449 11.4552ZM20.5406 14.0004C20.7078 14.1676 20.8405 14.3661 20.9311 14.5845C21.0216 14.803 21.0682 15.0371 21.0682 15.2736C21.0682 15.5101 21.0216 15.7443 20.9311 15.9627C20.8405 16.1812 20.7078 16.3797 20.5406 16.5468L17.4506 19.6368C10.4654 16.8696 5.67737 12.0528 3.02297 5.21283L6.11537 2.12163C6.28254 1.95436 6.48102 1.82167 6.69948 1.73114C6.91794 1.64061 7.1521 1.59401 7.38857 1.59401C7.62505 1.59401 7.85921 1.64061 8.07767 1.73114C8.29613 1.82167 8.49461 1.95436 8.66177 2.12163L10.3586 3.81843C10.696 4.15598 10.8856 4.61373 10.8856 5.09103C10.8856 5.56832 10.696 6.02608 10.3586 6.36363L8.87777 7.84443C8.77187 7.95004 8.70922 8.09139 8.70212 8.24079C8.69502 8.39018 8.74397 8.53684 8.83937 8.65203C10.3974 10.5331 12.1278 12.2646 14.0078 13.824C14.1228 13.9196 14.2694 13.9687 14.4188 13.9619C14.5682 13.955 14.7096 13.8926 14.8154 13.7868L16.2986 12.3036C16.6361 11.9665 17.0936 11.7772 17.5706 11.7772C18.0476 11.7772 18.5051 11.9665 18.8426 12.3036L20.5406 14.0004Z" fill="black"/>
</svg>
