<svg width="20" height="20" viewBox="0 0 20 20" fill="none" xmlns="http://www.w3.org/2000/svg">
<path d="M9.24756 16.6663V10.7473H3.3335C2.91932 10.7473 2.58356 10.4115 2.5835 9.99731C2.5835 9.5831 2.91928 9.24731 3.3335 9.24731H9.24756V3.33325C9.24756 2.91904 9.58334 2.58325 9.99756 2.58325C10.4117 2.58331 10.7476 2.91907 10.7476 3.33325V9.24731H16.6665C17.0807 9.24731 17.4165 9.5831 17.4165 9.99731C17.4164 10.4115 17.0807 10.7473 16.6665 10.7473H10.7476V16.6663C10.7476 17.0804 10.4117 17.4162 9.99756 17.4163C9.58334 17.4163 9.24756 17.0805 9.24756 16.6663Z" fill="black"/>
</svg>
