<svg width="24" height="24" viewBox="0 0 24 24" fill="none" xmlns="http://www.w3.org/2000/svg">
<path d="M11.999 2.25098C14.0489 2.24918 16.0172 3.0546 17.4766 4.49414H17.4775C18.1958 5.20389 18.7662 6.04912 19.1562 6.98047C19.5463 7.91193 19.7481 8.91203 19.75 9.92188V9.92285C19.75 12.5667 18.5963 14.9355 17.252 16.8047C15.9038 18.6791 14.3188 20.1136 13.3516 20.9053C13.1154 21.0986 12.855 21.329 12.4727 21.4356L12.4717 21.4346C12.1835 21.5152 11.8153 21.5154 11.5273 21.4346C11.1449 21.3279 10.8824 21.0961 10.6494 20.9063L10.6484 20.9053C9.68119 20.1136 8.09621 18.6791 6.74805 16.8047C5.40366 14.9355 4.25 12.5667 4.25 9.92285L4.25977 9.54395C4.3041 8.66319 4.50045 7.79567 4.8418 6.98047C5.23204 6.04864 5.80401 5.20339 6.52344 4.49414L6.80273 4.23145C8.22856 2.9571 10.0778 2.2497 11.999 2.25098ZM11.999 3.75C10.3441 3.74864 8.75542 4.39951 7.57715 5.56153L7.57617 5.5625C6.99831 6.13227 6.53907 6.81104 6.22559 7.55957C5.91205 8.30825 5.75054 9.11215 5.75 9.92383C5.75024 12.1317 6.71863 14.1946 7.96582 15.9287C9.20844 17.6564 10.6838 18.9965 11.5957 19.7432H11.5967C11.7427 19.8622 11.8132 19.9199 11.8711 19.959L11.9307 19.9902L11.9326 19.9912C11.9271 19.9897 11.9313 19.9914 11.9463 19.9932C11.9607 19.9949 11.9796 19.9961 12 19.9961C12.0204 19.9961 12.0393 19.9949 12.0537 19.9932C12.0687 19.9914 12.0729 19.9897 12.0674 19.9912L12.0693 19.9902C12.077 19.9881 12.0886 19.9861 12.1289 19.959C12.1859 19.9206 12.2572 19.8639 12.4023 19.7451C13.3141 18.9988 14.7906 17.6578 16.0342 15.9287C17.2812 14.1949 18.2495 12.1323 18.25 9.92481L18.2422 9.62012C18.2058 8.9124 18.0468 8.21561 17.7725 7.56055C17.498 6.90529 17.1128 6.30284 16.6338 5.78028L16.4229 5.56153C15.2446 4.39951 13.6559 3.74864 12.001 3.75H11.999Z" fill="black"/>
<path d="M13.25 10C13.25 9.66848 13.1182 9.35063 12.8838 9.11621C12.6494 8.88179 12.3315 8.75 12 8.75C11.6685 8.75 11.3506 8.88179 11.1162 9.11621C10.8818 9.35063 10.75 9.66848 10.75 10C10.75 10.3315 10.8818 10.6494 11.1162 10.8838C11.3506 11.1182 11.6685 11.25 12 11.25C12.3315 11.25 12.6494 11.1182 12.8838 10.8838C13.1182 10.6494 13.25 10.3315 13.25 10ZM14.75 10C14.75 10.7293 14.4601 11.4286 13.9443 11.9443C13.4286 12.4601 12.7293 12.75 12 12.75C11.2707 12.75 10.5714 12.4601 10.0557 11.9443C9.53994 11.4286 9.25 10.7293 9.25 10C9.25 9.27065 9.53994 8.57139 10.0557 8.05566C10.5714 7.53994 11.2707 7.25 12 7.25C12.7293 7.25 13.4286 7.53994 13.9443 8.05566C14.4601 8.57139 14.75 9.27065 14.75 10Z" fill="black"/>
</svg>
